<?xml version="1.0" encoding="utf-8"?>
<!-- Generator: Adobe Illustrator 19.0.0, SVG Export Plug-In . SVG Version: 6.00 Build 0)  -->
<svg version="1.1" id="Capa_1" xmlns="http://www.w3.org/2000/svg" xmlns:xlink="http://www.w3.org/1999/xlink" x="0px" y="0px"
	 viewBox="0 0 792 345" style="enable-background:new 0 0 792 345;" xml:space="preserve">
<style type="text/css">
	.st0{fill:url(#XMLID_253_);}
	.st1{fill:none;stroke:#1E1E1E;stroke-width:0.25;stroke-miterlimit:10;}
	.st2{fill:url(#XMLID_254_);}
	.st3{fill:none;stroke:#00281A;stroke-width:0.25;stroke-miterlimit:10;}
	.st4{fill:#008348;stroke:#00281A;stroke-width:0.25;stroke-miterlimit:10;}
	.st5{fill:none;stroke:#009062;stroke-miterlimit:10;}
	.st6{fill:#00935A;}
	.st7{fill:#5A4D52;}
	.st8{fill:#E72F3A;}
	.st9{fill:#E5DF00;}
	.st10{fill:#008B3E;}
	.st11{fill:#009346;}
	.st12{fill:#1F76BB;}
	.st13{fill:#643189;}
	.st14{fill:#E52528;}
	.st15{fill:#F8AE41;}
	.st16{fill:#FAEA27;}
	.st17{fill:#FFFFFF;}
	.st18{fill:#004222;}
	.st19{fill:#008348;}
	.st20{fill:none;stroke:#00281A;stroke-width:0.5;stroke-linecap:round;stroke-linejoin:round;}
	.st21{fill:none;stroke:#006232;stroke-width:0.25;stroke-miterlimit:10;}
	.st22{fill:none;stroke:#006A3A;stroke-width:0.5;stroke-linecap:round;stroke-linejoin:round;}
	.st23{fill:none;stroke:#AFAFAF;stroke-width:0.25;stroke-linecap:round;stroke-linejoin:round;}
	.st24{fill:none;stroke:#004F28;stroke-width:0.5;stroke-linecap:round;stroke-linejoin:round;}
</style>
<g id="XMLID_140_">
	<g id="XMLID_3_">
		<g>
			<radialGradient id="XMLID_253_" cx="77.3572" cy="221.8721" r="90.9391" gradientUnits="userSpaceOnUse">
				<stop  offset="0.7079" style="stop-color:#008348"/>
				<stop  offset="1" style="stop-color:#005E34"/>
			</radialGradient>
			<path id="XMLID_60_" class="st0" d="M139.4,334.1C119.6,320.6,99.8,305.4,83,289c-3.6-3.4-7.1-6.8-10.7-10.2
				c-3.2-3.4-6.3-6.8-9.4-10.3c-9.3-10.4-18.2-20.9-26.8-31.3c-2.6-3.9-5.1-8-7.4-12.1c-9-16.4-14.7-34.1-14.1-53.4
				c0.4-4.8,1.2-9.5,2.6-14.1C21.4,144,30,132,44.5,123.6c3.7-2.4,7.5-4.6,11.5-6.4c7.9-3.7,16.4-6.2,24.7-7.5c0,0,0,0.1,0,0.1
				s0,25.4,0,32c-45.1,41.5-8.5,105.7,24.5,142c2.6,3.2,5.2,6.2,7.9,9.2c8.2,8.9,17.2,17,26.9,23.9v16.8L139.4,334.1z"/>
		</g>
		<g>
			<path id="XMLID_61_" class="st1" d="M140.1,333.5v-16.8c-9.7-7-18.7-15-26.9-23.9c-2.7-3-5.4-6-7.9-9.2
				c-33-36.3-69.7-100.5-24.5-142c0-6.5,0-32,0-32s0,0,0-0.1c-8.4,1.3-16.8,3.9-24.7,7.5c-4,1.9-7.9,4-11.5,6.4
				C30,132,21.4,144,17.2,157.7c-1.4,4.6-2.2,9.3-2.6,14.1c-0.7,19.3,5,37,14.1,53.4c2.3,4.1,4.7,8.1,7.4,12.1
				c8.6,10.4,17.5,20.9,26.8,31.3c3.1,3.5,6.2,6.9,9.4,10.3c3.6,3.4,7.1,6.8,10.7,10.2c16.8,16.4,36.5,31.6,56.3,45.2"/>
		</g>
	</g>
	<g id="XMLID_4_">
		<g>
			<linearGradient id="XMLID_254_" gradientUnits="userSpaceOnUse" x1="100.5301" y1="130.2391" x2="161.7914" y2="130.2391">
				<stop  offset="0" style="stop-color:#303031"/>
				<stop  offset="0.4505" style="stop-color:#008348"/>
			</linearGradient>
			<path id="XMLID_57_" class="st2" d="M161.8,150.8c-2.5,0-8,0-8,0c-11.9-11.6-29.2-16.7-45.6-20.4c-1.3-3.6-7.7-20.7-7.7-20.7
				c1.8,0.2,3.6,0.5,5.4,0.8C129.8,114.9,150,129.4,161.8,150.8z"/>
		</g>
		<g>
			<path id="XMLID_58_" class="st3" d="M105.9,110.5c-1.8-0.3-3.5-0.6-5.4-0.8c0,0,6.3,17.1,7.7,20.7c16.4,3.7,33.7,8.8,45.6,20.4
				c0,0,5.5,0,8,0C150,129.4,129.8,114.9,105.9,110.5z"/>
		</g>
	</g>
	
		<ellipse id="XMLID_230_" transform="matrix(0.9943 0.1062 -0.1062 0.9943 18.1133 -11.1219)" class="st4" cx="113.5" cy="164.5" rx="11.4" ry="12.2"/>
	<circle id="XMLID_229_" class="st4" cx="200.3" cy="174.4" r="11.4"/>
	<path id="XMLID_228_" class="st5" d="M115.8,190.4"/>
	<path id="XMLID_227_" class="st5" d="M100.5,199.5"/>
	<path id="XMLID_226_" class="st4" d="M97.5,198c0.6-8.9,8.2-15.6,16.8-15.2c8,0.4,14.7,6.9,15.2,15.2v73.1h-32V198"/>
	<path id="XMLID_225_" class="st4" d="M171.2,193.2c-3.1-4.3-7.9-7.1-13.1-7.4c-7.8-0.5-15.3,4.5-17.9,12.2v73.1h33.5V198
		C173,196.3,172.2,194.7,171.2,193.2z"/>
	<line id="XMLID_224_" class="st5" x1="176.7" y1="199.5" x2="176.7" y2="199.5"/>
	<path id="XMLID_223_" class="st4" d="M182.8,264.4c0-17,0-60.3,0-60.3c2.5-9.4,11.4-15.1,19.8-13.7c6.6,1.1,12,6.6,13.7,13.7v67
		h-33.5C182.8,271.1,182.8,268.5,182.8,264.4z"/>
	<line id="XMLID_222_" class="st5" x1="99" y1="105.1" x2="99" y2="105.1"/>
	<g id="XMLID_78_">
		<path id="XMLID_79_" class="st6" d="M445.8,157.5v13.9c-8.4-4.3-15.1-6.4-20-6.4c-2.8,0-5.1,0.5-6.8,1.6s-2.5,2.5-2.5,4.3
			c0,1.4,0.6,2.7,1.8,3.9c1.2,1.2,4.1,2.8,8.8,4.7c4.7,1.9,8.4,3.7,11.2,5.4c2.8,1.7,5.2,4,7.3,7c2,3,3.1,6.9,3.1,11.5
			c0,6.6-2.2,11.9-6.7,15.8c-4.5,3.9-10.3,5.9-17.6,5.9c-7.8,0-15.4-2.3-22.8-6.9v-15.4c4.2,3.2,8,5.5,11.2,7
			c3.3,1.5,6.7,2.2,10.4,2.2c6.2,0,9.3-2.2,9.3-6.6c0-1.5-0.6-2.9-1.9-4.2c-1.2-1.3-4.2-2.9-8.9-4.8c-4.7-1.9-8.5-3.7-11.2-5.3
			c-2.8-1.6-5.1-4-7.1-7c-2-3-3-6.9-3-11.6c0-6.1,2.2-11.1,6.6-14.8c4.4-3.8,10.2-5.6,17.6-5.6C431.1,152,438.3,153.8,445.8,157.5z"
			/>
		<path id="XMLID_81_" class="st6" d="M505.6,211.1v13.1H459v-71.3h46V166h-30.2v14.9h28.8V194h-28.8v17.1H505.6z"/>
		<path id="XMLID_83_" class="st6" d="M517.7,152.9h28.2c6.1,0,11.1,2,14.9,6c3.8,4,5.7,8.8,5.7,14.5c0,7.8-3.6,13.7-10.9,17.4
			c3.2,1.6,6.2,6,9.1,13.1c2.9,7.1,5.6,13.9,8.3,20.2h-17.3c-1-2.3-2.8-6.8-5.4-13.4c-2.6-6.6-4.8-10.8-6.6-12.7
			c-1.8-1.9-3.8-2.8-5.9-2.8h-4.5v28.9h-15.8V152.9z M533.4,166v16.2h8.3c2.7,0,4.8-0.7,6.3-2.1c1.6-1.4,2.3-3.4,2.3-6
			c0-5.4-3-8.1-9-8.1H533.4z"/>
	</g>
	<g id="XMLID_73_">
		<path id="XMLID_74_" class="st7" d="M271.5,179.4l20.7-26.4H306v71.3h-16v-44.5l-17.4,22.3h-2.4l-17.4-22.3v44.5h-16V153h13.9
			L271.5,179.4z"/>
		<path id="XMLID_76_" class="st7" d="M367.9,153h16v40.4c0,10.4-2.8,18.3-8.3,23.7c-5.6,5.4-13.5,8.1-23.8,8.1
			c-10.2,0-18.1-2.7-23.7-8.2c-5.6-5.4-8.4-13.3-8.4-23.5V153h16.1v41c0,5,1.5,8.9,4.4,11.9c2.9,3,6.8,4.5,11.5,4.5
			c4.9,0,8.9-1.5,11.8-4.6c3-3.1,4.4-7.4,4.4-13.1V153z"/>
	</g>
	<g id="XMLID_64_">
		<g id="XMLID_292_">
			<path id="XMLID_298_" class="st7" d="M587.6,153h27.8c6.3,0,11.3,2.1,15,6.3c3.7,4.2,5.6,9.1,5.6,14.8c0,5.9-1.8,11-5.5,15.2
				c-3.7,4.2-8.7,6.3-15,6.3h-12.3v28.6h-15.5V153z M603.1,166v16.5h7.2c6.4,0,9.7-2.8,9.7-8.3c0-3.1-0.9-5.2-2.6-6.5
				c-1.7-1.2-4.7-1.8-8.8-1.8H603.1z"/>
			<path id="XMLID_295_" class="st7" d="M679.8,152.1c10.6,0,19.2,3.7,25.8,11c6.6,7.3,9.8,15.9,9.8,25.6c0,9.9-3.3,18.4-10,25.7
				c-6.7,7.2-15.2,10.9-25.6,10.9c-10.5,0-19.1-3.6-25.8-10.8c-6.6-7.2-9.9-15.8-9.9-25.7c0-9.8,3.3-18.3,9.9-25.6
				C660.6,155.7,669.2,152.1,679.8,152.1z M679.8,210.4c5.9,0,10.6-2,14.2-6c3.6-4,5.4-9.2,5.4-15.7c0-6.5-1.8-11.8-5.4-15.8
				c-3.6-4-8.3-6-14.2-6c-5.9,0-10.7,2-14.3,6c-3.6,4-5.4,9.2-5.4,15.8c0,6.5,1.8,11.7,5.4,15.7
				C669.2,208.4,673.9,210.4,679.8,210.4z"/>
			<path id="XMLID_293_" class="st7" d="M774.1,211.2v13.1h-47.5V153h15.5v58.2H774.1z"/>
		</g>
	</g>
	<g id="XMLID_13_">
		<path id="XMLID_16_" class="st7" d="M257.7,269.6H255v-23.3l-6.1,23.3h-2.5l-6.1-23.3v23.3h-2.7v-27.4h4.2l5.8,22.8l5.8-22.8h4.2
			V269.6z"/>
		<path id="XMLID_87_" class="st7" d="M270.8,270.1c-2.5,0-4.3-0.6-5.5-1.8c-1.2-1.2-2-2.7-2.3-4.3c-0.3-1.7-0.5-3.6-0.5-5.8v-15.8
			h2.8V258c0,3.6,0.5,6,1.4,7.1c0.9,1.1,2.3,1.7,4.1,1.7c1.8,0,3.2-0.6,4.1-1.7c0.9-1.1,1.4-3.5,1.4-7.1v-15.8h2.8v15.8
			c0,3.3-0.3,5.8-0.9,7.3c-0.6,1.6-1.5,2.7-2.8,3.5C274.2,269.7,272.6,270.1,270.8,270.1z"/>
		<path id="XMLID_89_" class="st7" d="M299,245.5h-7v24.1h-2.8v-24.1h-7v-3.2H299V245.5z"/>
		<path id="XMLID_91_" class="st7" d="M310.4,270.1c-2.5,0-4.3-0.6-5.5-1.8c-1.2-1.2-2-2.7-2.3-4.3c-0.3-1.7-0.5-3.6-0.5-5.8v-15.8
			h2.8V258c0,3.6,0.5,6,1.4,7.1c0.9,1.1,2.3,1.7,4.1,1.7c1.8,0,3.2-0.6,4.1-1.7c0.9-1.1,1.4-3.5,1.4-7.1v-15.8h2.8v15.8
			c0,3.3-0.3,5.8-0.9,7.3c-0.6,1.6-1.5,2.7-2.8,3.5C313.8,269.7,312.3,270.1,310.4,270.1z"/>
		<path id="XMLID_93_" class="st7" d="M341,269.6h-3.2l-2.5-8.3h-8.9l-2.4,8.3h-3l8.2-27.4h3L341,269.6z M334.5,258.4l-3.7-12.7
			l-3.6,12.7H334.5z"/>
		<path id="XMLID_96_" class="st7" d="M356.5,269.6h-13.2v-27.4h2.8v24.1h10.3V269.6z"/>
		<path id="XMLID_98_" class="st7" d="M375.7,242.3h6.7c7.2,0,10.8,4.5,10.8,13.5c0,9.2-3.6,13.8-10.8,13.8h-6.7V242.3z
			 M378.5,266.4h3.9c3.1,0,5.2-0.9,6.3-2.8c1.1-1.8,1.7-4.5,1.7-7.8c0-3.3-0.6-5.8-1.7-7.6c-1.1-1.8-3.2-2.7-6.3-2.7h-3.9V266.4z"/>
		<path id="XMLID_101_" class="st7" d="M413,269.6h-15.9v-27.4h15.4v3.2h-12.6v8.4h11.7v3.2h-11.7v9.3h13V269.6z"/>
		<path id="XMLID_103_" class="st7" d="M440.7,270.1c-3,0-5.2-0.9-6.7-2.6c-1.5-1.7-2.3-4-2.3-6.7h2.7c0.1,2,0.8,3.6,2,4.5
			c1.2,1,2.6,1.5,4.3,1.5c1.6,0,2.8-0.4,3.8-1.3c1-0.8,1.4-2,1.4-3.4c0-1.5-0.5-2.6-1.5-3.3c-1-0.7-2.7-1.4-5.1-2
			c-2.4-0.7-4.2-1.6-5.2-2.8c-1.1-1.2-1.6-2.8-1.6-4.7c0-2.2,0.7-4,2.1-5.5c1.4-1.4,3.2-2.1,5.5-2.1c2.4,0,4.3,0.7,5.8,2.1
			c1.5,1.4,2.2,3.5,2.3,6.1h-2.7c-0.3-3.3-2-5-5.3-5c-1.6,0-2.8,0.4-3.6,1.1c-0.9,0.8-1.3,1.8-1.3,3c0,1.1,0.3,2,1,2.6
			c0.7,0.6,2,1.1,3.9,1.7c1.9,0.5,3.4,1.1,4.5,1.6c1.1,0.5,2.1,1.3,2.9,2.4c0.8,1.1,1.2,2.6,1.2,4.4c0,2.4-0.7,4.3-2.2,5.9
			C445,269.3,443.1,270.1,440.7,270.1z"/>
		<path id="XMLID_105_" class="st7" d="M468.4,269.6h-15.9v-27.4h15.4v3.2h-12.6v8.4h11.7v3.2h-11.7v9.3h13V269.6z"/>
		<path id="XMLID_107_" class="st7" d="M490.1,269.6h-3l-2-7.3c-0.4-1.3-1-2.4-1.8-3.2c-0.8-0.8-1.8-1.2-2.9-1.2h-5.2v11.7h-2.8
			v-27.4h9.4c1.6,0,3,0.2,4,0.6c1,0.4,1.9,1.3,2.6,2.6c0.7,1.3,1,2.8,1,4.5c0,1.9-0.4,3.5-1.3,4.7c-0.9,1.3-2,2.1-3.5,2.5v0.1
			c1.5,0.6,2.6,2.3,3.4,4.9L490.1,269.6z M475.2,254.7h6.3c1.8,0,3-0.4,3.8-1.1c0.8-0.7,1.2-1.9,1.2-3.7c0-3.1-1.5-4.7-4.6-4.7h-6.7
			V254.7z"/>
		<path id="XMLID_110_" class="st7" d="M511.1,242.3l-8.3,27.4h-2.9l-8.3-27.4h3l6.7,23.5l6.7-23.5H511.1z"/>
		<path id="XMLID_112_" class="st7" d="M516.8,269.6H514v-27.4h2.8V269.6z"/>
		<path id="XMLID_114_" class="st7" d="M530.8,270.1c-3,0-5.4-1.3-7.2-3.8c-1.8-2.5-2.7-6-2.7-10.3c0-4.3,0.9-7.8,2.7-10.3
			c1.8-2.5,4.2-3.8,7.2-3.8c2.3,0,4.3,0.8,5.9,2.4s2.5,3.7,2.7,6.3h-2.9c-0.1-1.7-0.7-3.1-1.7-4.1c-1-1-2.4-1.5-4-1.5
			c-2.2,0-3.9,1-5.1,2.9c-1.3,1.9-1.9,4.6-1.9,8.2c0,3.5,0.6,6.3,1.9,8.2c1.2,1.9,2.9,2.9,5.1,2.9c1.7,0,3-0.5,4-1.6
			c1-1,1.6-2.5,1.7-4.5h2.9c-0.2,2.9-1.1,5.2-2.7,6.8C535.2,269.3,533.2,270.1,530.8,270.1z"/>
		<path id="XMLID_116_" class="st7" d="M546.5,269.6h-2.8v-27.4h2.8V269.6z"/>
		<path id="XMLID_118_" class="st7" d="M560.8,241.8c3,0,5.4,1.3,7.3,3.9c1.9,2.6,2.8,6,2.8,10.3c0,4.3-0.9,7.7-2.8,10.3
			c-1.9,2.6-4.3,3.9-7.3,3.9c-3,0-5.4-1.3-7.3-3.9c-1.9-2.6-2.9-6-2.9-10.3c0-4.3,1-7.7,2.9-10.3
			C555.4,243.1,557.9,241.8,560.8,241.8z M560.8,267c2.1,0,3.9-1,5.2-2.9c1.4-1.9,2-4.7,2-8.1c0-3.5-0.7-6.2-2-8.1
			c-1.4-1.9-3.1-2.9-5.2-2.9c-2.1,0-3.9,1-5.3,2.9c-1.4,1.9-2.1,4.7-2.1,8.1c0,3.5,0.7,6.2,2,8.1C557,266,558.7,267,560.8,267z"/>
		<path id="XMLID_121_" class="st7" d="M582.8,270.1c-3,0-5.2-0.9-6.7-2.6c-1.5-1.7-2.3-4-2.3-6.7h2.7c0.1,2,0.8,3.6,2,4.5
			c1.2,1,2.6,1.5,4.3,1.5c1.6,0,2.8-0.4,3.8-1.3c1-0.8,1.4-2,1.4-3.4c0-1.5-0.5-2.6-1.5-3.3c-1-0.7-2.7-1.4-5.1-2
			c-2.4-0.7-4.2-1.6-5.2-2.8c-1.1-1.2-1.6-2.8-1.6-4.7c0-2.2,0.7-4,2.1-5.5c1.4-1.4,3.2-2.1,5.5-2.1c2.4,0,4.3,0.7,5.8,2.1
			c1.5,1.4,2.2,3.5,2.3,6.1h-2.7c-0.3-3.3-2-5-5.3-5c-1.6,0-2.8,0.4-3.6,1.1c-0.9,0.8-1.3,1.8-1.3,3c0,1.1,0.3,2,1,2.6
			c0.7,0.6,2,1.1,3.9,1.7c1.9,0.5,3.4,1.1,4.5,1.6c1.1,0.5,2.1,1.3,2.9,2.4c0.8,1.1,1.2,2.6,1.2,4.4c0,2.4-0.7,4.3-2.2,5.9
			C587,269.3,585.1,270.1,582.8,270.1z"/>
		<path id="XMLID_123_" class="st7" d="M627.8,269.6h-3.2l-2.5-8.3h-8.9l-2.4,8.3h-3l8.2-27.4h3L627.8,269.6z M621.4,258.4
			l-3.7-12.7l-3.6,12.7H621.4z"/>
		<path id="XMLID_126_" class="st7" d="M643.3,269.6h-13.2v-27.4h2.8v24.1h10.3V269.6z"/>
		<path id="XMLID_128_" class="st7" d="M662.5,242.3h7.9c1.7,0,3.2,0.2,4.4,0.6c1.2,0.4,2.1,1.3,2.8,2.7c0.7,1.4,1,2.9,1,4.7
			c0,2.8-0.7,4.9-2,6.3c-1.4,1.4-3.3,2.1-5.9,2.1h-5.4v10.9h-2.8V242.3z M665.3,255.5h5.4c1.8,0,3.1-0.4,3.9-1.3
			c0.8-0.9,1.2-2.1,1.2-3.8c0-1.1-0.2-2.1-0.6-2.9s-1-1.4-1.6-1.6c-0.7-0.2-1.6-0.3-2.8-0.3h-5.3V255.5z"/>
		<path id="XMLID_131_" class="st7" d="M691.5,241.8c3,0,5.4,1.3,7.3,3.9c1.9,2.6,2.8,6,2.8,10.3c0,4.3-0.9,7.7-2.8,10.3
			c-1.9,2.6-4.3,3.9-7.3,3.9c-3,0-5.4-1.3-7.3-3.9c-1.9-2.6-2.9-6-2.9-10.3c0-4.3,1-7.7,2.9-10.3
			C686.1,243.1,688.5,241.8,691.5,241.8z M691.5,267c2.1,0,3.9-1,5.2-2.9c1.4-1.9,2-4.7,2-8.1c0-3.5-0.7-6.2-2-8.1
			c-1.4-1.9-3.1-2.9-5.2-2.9c-2.1,0-3.9,1-5.3,2.9c-1.4,1.9-2.1,4.7-2.1,8.1c0,3.5,0.7,6.2,2,8.1C687.7,266,689.4,267,691.5,267z"/>
		<path id="XMLID_134_" class="st7" d="M718.6,269.6h-13.2v-27.4h2.8v24.1h10.3V269.6z"/>
		<path id="XMLID_136_" class="st7" d="M725.1,269.6h-2.8v-27.4h2.8V269.6z"/>
		<path id="XMLID_138_" class="st7" d="M739.1,270.1c-3,0-5.4-1.3-7.2-3.8c-1.8-2.5-2.7-6-2.7-10.3c0-4.3,0.9-7.8,2.7-10.3
			c1.8-2.5,4.2-3.8,7.2-3.8c2.3,0,4.3,0.8,5.9,2.4c1.6,1.6,2.5,3.7,2.7,6.3h-2.9c-0.1-1.7-0.7-3.1-1.7-4.1c-1-1-2.4-1.5-4-1.5
			c-2.2,0-3.9,1-5.1,2.9c-1.3,1.9-1.9,4.6-1.9,8.2c0,3.5,0.6,6.3,1.9,8.2c1.2,1.9,2.9,2.9,5.1,2.9c1.7,0,3-0.5,4-1.6
			c1-1,1.6-2.5,1.7-4.5h2.9c-0.2,2.9-1.1,5.2-2.7,6.8C743.5,269.3,741.5,270.1,739.1,270.1z"/>
		<path id="XMLID_141_" class="st7" d="M757.2,235.3l-3.2,5.2h-2.1l1.9-5.2H757.2z M754.9,269.6H752v-27.4h2.8V269.6z"/>
		<path id="XMLID_144_" class="st7" d="M777.4,269.6h-3.2l-2.5-8.3h-8.9l-2.4,8.3h-3l8.2-27.4h3L777.4,269.6z M770.9,258.4
			l-3.7-12.7l-3.6,12.7H770.9z"/>
	</g>
	<rect id="XMLID_221_" x="236.8" y="288.6" class="st8" width="418.8" height="7.6"/>
	<rect id="XMLID_220_" x="238.3" y="296.2" class="st9" width="418.8" height="7.6"/>
	<rect id="XMLID_219_" x="236.8" y="303.8" class="st10" width="418.8" height="7.6"/>
	<g>
		<rect id="XMLID_218_" x="758.7" y="288.6" class="st11" width="17.2" height="3.3"/>
		<rect id="XMLID_217_" x="741.5" y="288.6" class="st12" width="17.2" height="3.3"/>
		<rect id="XMLID_216_" x="724.3" y="288.6" class="st13" width="17.2" height="3.3"/>
		<rect id="XMLID_215_" x="707.1" y="288.6" class="st14" width="17.2" height="3.3"/>
		<rect id="XMLID_214_" x="690" y="288.6" class="st15" width="17.2" height="3.3"/>
		<rect id="XMLID_213_" x="672.8" y="288.6" class="st16" width="17.2" height="3.3"/>
		<rect id="XMLID_212_" x="655.6" y="288.6" class="st17" width="17.2" height="3.3"/>
		<rect id="XMLID_211_" x="655.6" y="291.9" class="st11" width="17.2" height="3.3"/>
		<rect id="XMLID_210_" x="655.6" y="295.1" class="st12" width="17.2" height="3.3"/>
		<rect id="XMLID_209_" x="655.6" y="298.4" class="st13" width="17.2" height="3.3"/>
		<rect id="XMLID_208_" x="655.6" y="301.7" class="st14" width="17.2" height="3.3"/>
		<rect id="XMLID_207_" x="655.6" y="304.9" class="st15" width="17.2" height="3.3"/>
		<rect id="XMLID_206_" x="655.6" y="308.2" class="st16" width="17.2" height="3.3"/>
		<rect id="XMLID_205_" x="672.8" y="308.2" class="st15" width="17.2" height="3.3"/>
		<rect id="XMLID_204_" x="690" y="308.2" class="st14" width="17.2" height="3.3"/>
		<rect id="XMLID_203_" x="707.1" y="308.2" class="st13" width="17.2" height="3.3"/>
		<rect id="XMLID_202_" x="707.1" y="304.9" class="st12" width="17.2" height="3.3"/>
		<rect id="XMLID_201_" x="690" y="304.9" class="st13" width="17.2" height="3.3"/>
		<rect id="XMLID_200_" x="672.8" y="304.9" class="st14" width="17.2" height="3.3"/>
		<rect id="XMLID_199_" x="724.3" y="308.2" class="st12" width="17.2" height="3.3"/>
		<rect id="XMLID_198_" x="741.5" y="308.2" class="st11" width="17.2" height="3.3"/>
		<rect id="XMLID_197_" x="758.7" y="308.2" class="st17" width="17.2" height="3.3"/>
		<rect id="XMLID_196_" x="672.8" y="291.9" class="st17" width="17.2" height="3.3"/>
		<rect id="XMLID_195_" x="672.8" y="301.7" class="st13" width="17.2" height="3.3"/>
		<rect id="XMLID_194_" x="690" y="301.7" class="st12" width="17.2" height="3.3"/>
		<rect id="XMLID_193_" x="707.1" y="301.7" class="st11" width="17.2" height="3.3"/>
		<rect id="XMLID_192_" x="724.3" y="301.7" class="st17" width="17.2" height="3.3"/>
		<rect id="XMLID_191_" x="741.5" y="301.7" class="st16" width="17.2" height="3.3"/>
		<rect id="XMLID_190_" x="741.5" y="304.9" class="st17" width="17.2" height="3.3"/>
		<rect id="XMLID_189_" x="724.3" y="304.9" class="st11" width="17.2" height="3.3"/>
		<rect id="XMLID_188_" x="707.1" y="298.4" class="st17" width="17.2" height="3.3"/>
		<rect id="XMLID_187_" x="690" y="291.9" class="st16" width="17.2" height="3.3"/>
		<rect id="XMLID_186_" x="690" y="295.1" class="st17" width="17.2" height="3.3"/>
		<rect id="XMLID_185_" x="672.8" y="295.1" class="st11" width="17.2" height="3.3"/>
		<rect id="XMLID_184_" x="672.8" y="298.4" class="st12" width="17.2" height="3.3"/>
		<rect id="XMLID_183_" x="690" y="298.4" class="st11" width="17.2" height="3.3"/>
		<rect id="XMLID_182_" x="707.1" y="291.9" class="st15" width="17.2" height="3.3"/>
		<rect id="XMLID_181_" x="707.1" y="295.1" class="st16" width="17.2" height="3.3"/>
		<rect id="XMLID_180_" x="724.3" y="291.9" class="st14" width="17.2" height="3.3"/>
		<rect id="XMLID_179_" x="724.3" y="295.1" class="st15" width="17.2" height="3.3"/>
		<rect id="XMLID_178_" x="724.3" y="298.4" class="st16" width="17.2" height="3.3"/>
		<rect id="XMLID_177_" x="741.5" y="291.9" class="st13" width="17.2" height="3.3"/>
		<rect id="XMLID_176_" x="741.5" y="295.1" class="st14" width="17.2" height="3.3"/>
		<rect id="XMLID_175_" x="741.5" y="298.4" class="st15" width="17.2" height="3.3"/>
		<rect id="XMLID_174_" x="758.7" y="291.9" class="st12" width="17.2" height="3.3"/>
		<rect id="XMLID_173_" x="758.7" y="295.1" class="st13" width="17.2" height="3.3"/>
		<rect id="XMLID_172_" x="758.7" y="298.4" class="st14" width="17.2" height="3.3"/>
		<rect id="XMLID_171_" x="758.7" y="301.7" class="st15" width="17.2" height="3.3"/>
		<rect id="XMLID_170_" x="758.7" y="304.9" class="st16" width="17.2" height="3.3"/>
	</g>
	<g>
		<g id="XMLID_5_">
			<g>
				<path id="XMLID_40_" class="st18" d="M111.1,28.2c4.9,0.9,7.6,8,6.1,15.8c0,0.2-0.1,0.4-0.1,0.5c-0.6,0.9-0.6,1.3-1.3,2.7
					c-1,1.9-1.7,2.3-1.5,3c0.1,0.2,0.2,0.4,0.4,0.5c-2.4,3.9-5.8,6.2-9.1,5.6c-3.1-0.6-5.3-3.6-6.2-7.7c-0.5-2.4-0.5-5.2,0-8.1
					C100.9,32.8,106.1,27.3,111.1,28.2z"/>
				<path id="XMLID_39_" class="st18" d="M99,48.8c-1.1,0.4-2.6,1-4.6,1.5c-5.9,1.6-10.7,1.6-15.2,1.5c-8.7-0.2-16.5-0.9-22.8-1.5
					c-0.2,0-3.3-0.4-4.6-3c-0.1-0.2-1.2-2.5,0-4.6c0.4-0.7,0.9-1.1,1.5-1.5c2.7-1.8,5.5-1.1,9.1-1.5c1.2-0.1,2.8-0.6,6.1-1.5
					c7.4-2.1,15.9-5.9,19.8-7.6c9.3-4.2,19.5-8.9,24.4-7.6c3.6,0.9,6.1,3,6.1,3c0.7,0.6,1.2,1.1,1.5,1.5c0.5,0.6,1.1,1.7,1.5,3
					c0.8,2.6,0.3,4.8,0,6.1c-0.3,1.4-0.9,4.2-3,6.1c-0.4,0.4-0.9,0.7-1.5,1.5c-0.1,0.1-0.2,0.2-0.2,0.3c0-0.2,0.1-0.4,0.1-0.5
					c1.5-7.8-1.2-14.9-6.1-15.8c-4.9-0.9-10.1,4.6-11.6,12.4c-0.6,2.9-0.5,5.7,0,8.1L99,48.8z"/>
				<path id="XMLID_38_" class="st18" d="M115.8,47.2c0.7-1.4,0.7-1.9,1.3-2.7c-0.5,2.4-1.4,4.5-2.5,6.3c-0.2-0.1-0.3-0.3-0.4-0.5
					C114,49.5,114.7,49.2,115.8,47.2z"/>
				<path id="XMLID_37_" class="st18" d="M115.8,51.8c0.3,0.5,0.4,1,0.3,1.5l-0.3,0c-0.4,0.4-0.9,0.8-1.4,1.2
					c-0.9,0.6-1.7,1-2.3,1.3c0,0-2.1,1.1-4.5,1.8c-9.7,2.8-22.5,1.8-22.6,1.8c-8,0-17-0.6-27-1.8l-0.3,0c-0.4-2.5-0.8-4.9-1.2-7.4
					c6.3,0.7,14.2,1.3,22.8,1.5c4.5,0.1,9.3,0.1,15.2-1.5c1.9-0.5,3.5-1.1,4.6-1.5l0.4-0.1c0.8,4.1,3.1,7.1,6.2,7.7
					c3.3,0.6,6.7-1.7,9.1-5.6C114.9,51.1,115.4,51.3,115.8,51.8z"/>
				<path id="XMLID_36_" class="st19" d="M85.3,70.7c13.6,2.6,29.3,1.8,36.8-1.4c-1.8,33.3-48.7,38.9-61.3,9.8
					c-2.6-6-3.5-13-2.7-19.5C64,63.4,73.3,68.3,85.3,70.7z"/>
				<path id="XMLID_35_" class="st18" d="M57.9,59.4c8.7,0.5,17.4,1,25.9,1.5c0.5,0,5.6,0.3,12.2,0c0.7,0,5.9-0.3,10.7-1.5
					c1.1-0.3,2.2-0.7,4.6-1.5c1.1-0.4,2.1-0.8,3-1.5c0.7-0.5,1.2-1.1,1.5-1.5c9.4,5.1,11.2,8.4,10.7,10.5c-0.4,1.5-1.9,2.8-4.4,3.8
					c-7.5,3.2-23.2,4.1-36.8,1.4C73.3,68.3,64,63.4,58,59.5C58,59.5,57.9,59.5,57.9,59.4z"/>
				<path id="XMLID_34_" class="st18" d="M57.9,57.6c10,1.2,19,1.8,27,1.8c0.1,0,12.9,1,22.6-1.8c2.4-0.7,4.5-1.8,4.5-1.8
					c0.7-0.3,1.5-0.7,2.3-1.3c0.6-0.4,1-0.8,1.4-1.2l0.3,0c0,0.5-0.2,1.1-0.3,1.5c-0.3,0.4-0.8,1-1.5,1.5c-1,0.8-1.9,1.1-3,1.5
					c-2.3,0.8-3.5,1.2-4.6,1.5c-4.8,1.2-10,1.5-10.7,1.5c-6.6,0.3-11.7,0-12.2,0c-8.5-0.5-17.2-1-25.9-1.5c-0.1-0.6-0.2-1.2-0.3-1.8
					L57.9,57.6z"/>
			</g>
			<g>
				<path id="XMLID_48_" class="st20" d="M120.3,27.5c0.5,0.6,1.1,1.7,1.5,3c0.8,2.6,0.3,4.8,0,6.1c-0.3,1.4-0.9,4.2-3,6.1
					c-0.4,0.4-0.9,0.7-1.5,1.5c-0.1,0.1-0.2,0.2-0.2,0.3c-0.6,0.9-0.6,1.3-1.3,2.7c-1,1.9-1.7,2.3-1.5,3c0.1,0.2,0.2,0.4,0.4,0.5
					c0.3,0.3,0.8,0.4,1.2,1c0.3,0.5,0.4,1,0.3,1.5c0,0.5-0.2,1.1-0.3,1.5"/>
				<path id="XMLID_47_" class="st20" d="M122.1,69c0,0.1,0,0.2,0,0.2c-1.8,33.3-48.7,38.9-61.3,9.8c-2.6-6-3.5-13-2.7-19.5v0"/>
				<path id="XMLID_46_" class="st20" d="M56.4,50.3c0.4,2.5,0.8,4.9,1.2,7.4c0.1,0.6,0.2,1.2,0.3,1.8"/>
				<path id="XMLID_45_" class="st20" d="M57.9,59.4c0,0,0.1,0,0.1,0.1c6,3.9,15.2,8.8,27.3,11.2c13.6,2.6,29.3,1.8,36.8-1.4
					c2.4-1,4-2.3,4.4-3.8c0.5-2.1-1.3-5.4-10.7-10.5c-0.3,0.4-0.8,1-1.5,1.5c-1,0.8-1.9,1.1-3,1.5c-2.3,0.8-3.5,1.2-4.6,1.5
					c-4.8,1.2-10,1.5-10.7,1.5c-6.6,0.3-11.7,0-12.2,0C75.3,60.5,66.6,59.9,57.9,59.4z"/>
				<path id="XMLID_44_" class="st20" d="M99,48.8c-1.1,0.4-2.6,1-4.6,1.5c-5.9,1.6-10.7,1.6-15.2,1.5c-8.7-0.2-16.5-0.9-22.8-1.5"
					/>
				<path id="XMLID_43_" class="st20" d="M115.8,53.3c-0.4,0.4-0.9,0.8-1.4,1.2c-0.9,0.6-1.7,1-2.3,1.3c0,0-2.1,1.1-4.5,1.8
					c-9.7,2.8-22.5,1.8-22.6,1.8c-8,0-17-0.6-27-1.8"/>
				<path id="XMLID_42_" class="st20" d="M99.4,48.7c-0.5-2.4-0.5-5.2,0-8.1c1.5-7.8,6.7-13.4,11.6-12.4c4.9,0.9,7.6,8,6.1,15.8
					c0,0.2-0.1,0.4-0.1,0.5c-0.5,2.4-1.4,4.5-2.5,6.3c-2.4,3.9-5.8,6.2-9.1,5.6C102.4,55.8,100.2,52.8,99.4,48.7z"/>
				<path id="XMLID_41_" class="st20" d="M56.4,50.3c-0.2,0-3.3-0.4-4.6-3c-0.1-0.2-1.2-2.5,0-4.6c0.4-0.7,0.9-1.1,1.5-1.5
					c2.7-1.8,5.5-1.1,9.1-1.5c1.2-0.1,2.8-0.6,6.1-1.5c7.4-2.1,15.9-5.9,19.8-7.6c9.3-4.2,19.5-8.9,24.4-7.6c3.6,0.9,6.1,3,6.1,3
					c0.7,0.6,1.2,1.1,1.5,1.5"/>
			</g>
		</g>
		<path class="st21" d="M93.7,51c2.3,0.8,4.6,1.5,6.9,2.3"/>
		<path id="XMLID_168_" class="st22" d="M120.3,29c-0.9-1.3-2.9-3.5-6.1-4.6c-1.9-0.6-4-0.8-7.6,0c-6.7,1.4-9.8,3.9-18.3,7.6
			c-1.9,0.8-4.3,1.9-7.6,3c-3.7,1.3-18.2,6.4-22.8,6.1c-0.5,0-3-0.3-4.3,1.2c0,0,0,0,0,0l0,0c-0.6,0.6-1.2,1.2-1.8,1.9"/>
		<path id="XMLID_166_" class="st23" d="M117.3,57.9c3.5,1.9,7.2,4.5,6.9,6.9c-0.7,4.9-18.1,6-19.8,6.1c-7.8,0.4-20.6-0.2-36.5-7.6"
			/>
		<path id="XMLID_165_" class="st23" d="M116.5,58.7c0.4,0.2,4,1.5,4.6,4.6c0.1,0.4,0.1,0.9,0,1.5"/>
		<path id="XMLID_164_" class="st23" d="M98.2,69.3c-3.6-0.2-7.7-0.6-12.2-1.5c-6-1.2-11.1-2.9-15.2-4.6"/>
	</g>
	<path id="XMLID_163_" class="st23" d="M203.3,76.9"/>
	<line id="XMLID_162_" class="st5" x1="194.9" y1="156.9" x2="194.9" y2="156.9"/>
	<g id="XMLID_1_">
		<g>
			<path id="XMLID_14_" class="st18" d="M164.6,159.4c1.7,0.3,2.6,2.7,2.1,5.4c0,0.1,0,0.1,0,0.2c-0.2,0.3-0.2,0.5-0.4,0.9
				c-0.3,0.7-0.6,0.8-0.5,1c0,0.1,0.1,0.1,0.1,0.2c-0.8,1.3-2,2.1-3.1,1.9c-1.1-0.2-1.8-1.2-2.1-2.6c-0.2-0.8-0.2-1.8,0-2.7
				C161.1,161,162.9,159.1,164.6,159.4z"/>
			<path id="XMLID_12_" class="st18" d="M160.6,163.6c-0.2,1-0.2,1.9,0,2.7l-0.1,0c-0.4,0.1-0.9,0.3-1.6,0.5c-2,0.6-3.6,0.6-5.2,0.5
				c-3-0.1-5.6-0.3-7.8-0.5c-0.1,0-1.1-0.1-1.6-1c0,0-0.4-0.9,0-1.6c0.1-0.2,0.3-0.4,0.5-0.5c0.9-0.6,1.9-0.4,3.1-0.5
				c0.4,0,1-0.2,2.1-0.5c2.5-0.7,5.4-2,6.8-2.6c3.2-1.4,6.6-3,8.3-2.6c1.2,0.3,2.1,1,2.1,1c0.2,0.2,0.4,0.4,0.5,0.5
				c0.2,0.2,0.4,0.6,0.5,1c0.3,0.9,0.1,1.6,0,2.1c-0.1,0.5-0.3,1.4-1,2.1c-0.1,0.1-0.3,0.3-0.5,0.5c0,0-0.1,0.1-0.1,0.1
				c0-0.1,0-0.1,0-0.2c0.5-2.7-0.4-5.1-2.1-5.4C162.9,159.1,161.1,161,160.6,163.6z"/>
			<path id="XMLID_11_" class="st18" d="M166.2,165.9c0.3-0.5,0.2-0.6,0.4-0.9c-0.2,0.8-0.5,1.5-0.8,2.1c-0.1,0-0.1-0.1-0.1-0.2
				C165.6,166.7,165.8,166.5,166.2,165.9z"/>
			<path id="XMLID_10_" class="st18" d="M163.3,169.4c-3.3,1-7.7,0.6-7.7,0.6c-2.7,0-5.8-0.2-9.2-0.6l-0.1,0
				c-0.1-0.8-0.3-1.7-0.4-2.5c2.2,0.2,4.8,0.5,7.8,0.5c1.5,0,3.2,0,5.2-0.5c0.7-0.2,1.2-0.4,1.6-0.5l0.1,0c0.3,1.4,1,2.4,2.1,2.6
				c1.1,0.2,2.3-0.6,3.1-1.9c0.1,0.1,0.3,0.2,0.4,0.3c0.1,0.2,0.1,0.3,0.1,0.5l-0.1,0c-0.1,0.1-0.3,0.3-0.5,0.4
				c-0.3,0.2-0.6,0.4-0.8,0.5C164.9,168.8,164.1,169.2,163.3,169.4z"/>
			<path id="XMLID_9_" class="st19" d="M155.8,173.9c4.6,0.9,10,0.6,12.5-0.5c-0.6,11.4-16.6,13.3-20.9,3.3
				c-0.9-2.1-1.2-4.4-0.9-6.7C148.5,171.4,151.7,173.1,155.8,173.9z"/>
			<path id="XMLID_8_" class="st18" d="M168.3,173.4c-2.6,1.1-7.9,1.4-12.5,0.5c-4.1-0.8-7.3-2.5-9.3-3.8c0,0,0,0,0,0
				c3,0.2,5.9,0.3,8.8,0.5c0.2,0,1.9,0.1,4.2,0c0.2,0,2-0.1,3.6-0.5c0.4-0.1,0.8-0.2,1.6-0.5c0.4-0.1,0.7-0.3,1-0.5
				c0.2-0.2,0.4-0.4,0.5-0.5c3.2,1.8,3.8,2.9,3.6,3.6C169.7,172.6,169.1,173,168.3,173.4z"/>
			<path id="XMLID_7_" class="st18" d="M163.3,169.4c0.8-0.2,1.5-0.6,1.5-0.6c0.2-0.1,0.5-0.2,0.8-0.5c0.2-0.1,0.3-0.3,0.5-0.4
				l0.1,0c0,0.2-0.1,0.4-0.1,0.5c-0.1,0.1-0.3,0.3-0.5,0.5c-0.3,0.3-0.6,0.4-1,0.5c-0.8,0.3-1.2,0.4-1.6,0.5
				c-1.6,0.4-3.4,0.5-3.6,0.5c-2.3,0.1-4,0-4.2,0c-2.9-0.2-5.9-0.3-8.8-0.5c0-0.2-0.1-0.4-0.1-0.6l0.1,0c3.4,0.4,6.5,0.6,9.2,0.6
				C155.7,170,160,170.4,163.3,169.4z"/>
		</g>
		<g>
			<path id="XMLID_23_" class="st24" d="M167.7,159.1c0.2,0.2,0.4,0.6,0.5,1c0.3,0.9,0.1,1.6,0,2.1c-0.1,0.5-0.3,1.4-1,2.1
				c-0.1,0.1-0.3,0.3-0.5,0.5c0,0-0.1,0.1-0.1,0.1c-0.2,0.3-0.2,0.5-0.4,0.9c-0.3,0.7-0.6,0.8-0.5,1c0,0.1,0.1,0.1,0.1,0.2
				c0.1,0.1,0.3,0.2,0.4,0.3c0.1,0.2,0.1,0.3,0.1,0.5c0,0.2-0.1,0.4-0.1,0.5"/>
			<path id="XMLID_22_" class="st24" d="M168.3,173.3C168.3,173.3,168.3,173.4,168.3,173.3c-0.6,11.4-16.6,13.3-20.9,3.4
				c-0.9-2.1-1.2-4.4-0.9-6.7v0"/>
			<path id="XMLID_21_" class="st24" d="M145.9,166.9c0.1,0.8,0.3,1.7,0.4,2.5c0,0.2,0.1,0.4,0.1,0.6"/>
			<path id="XMLID_20_" class="st24" d="M146.4,170C146.4,170,146.4,170,146.4,170c2.1,1.4,5.2,3,9.4,3.8c4.6,0.9,10,0.6,12.5-0.5
				c0.8-0.4,1.4-0.8,1.5-1.3c0.2-0.7-0.4-1.8-3.6-3.6c-0.1,0.1-0.3,0.3-0.5,0.5c-0.3,0.3-0.6,0.4-1,0.5c-0.8,0.3-1.2,0.4-1.6,0.5
				c-1.6,0.4-3.4,0.5-3.6,0.5c-2.3,0.1-4,0-4.2,0C152.4,170.4,149.4,170.2,146.4,170z"/>
			<path id="XMLID_19_" class="st24" d="M160.4,166.4c-0.4,0.1-0.9,0.3-1.6,0.5c-2,0.6-3.6,0.6-5.2,0.5c-3-0.1-5.6-0.3-7.8-0.5"/>
			<path id="XMLID_18_" class="st24" d="M166.2,168c-0.1,0.1-0.3,0.3-0.5,0.4c-0.3,0.2-0.6,0.4-0.8,0.5c0,0-0.7,0.4-1.5,0.6
				c-3.3,1-7.7,0.6-7.7,0.6c-2.7,0-5.8-0.2-9.2-0.6"/>
			<path id="XMLID_17_" class="st24" d="M160.6,166.4c-0.2-0.8-0.2-1.8,0-2.7c0.5-2.7,2.3-4.6,4-4.2c1.7,0.3,2.6,2.7,2.1,5.4
				c0,0.1,0,0.1,0,0.2c-0.2,0.8-0.5,1.5-0.8,2.1c-0.8,1.3-2,2.1-3.1,1.9C161.6,168.8,160.8,167.8,160.6,166.4z"/>
			<path id="XMLID_15_" class="st24" d="M145.9,166.9c-0.1,0-1.1-0.1-1.6-1c0,0-0.4-0.9,0-1.6c0.1-0.2,0.3-0.4,0.5-0.5
				c0.9-0.6,1.9-0.4,3.1-0.5c0.4,0,1-0.2,2.1-0.5c2.5-0.7,5.4-2,6.8-2.6c3.2-1.4,6.6-3,8.3-2.6c1.2,0.3,2.1,1,2.1,1
				c0.2,0.2,0.4,0.4,0.5,0.5"/>
		</g>
	</g>
	<path class="st21" d="M158.6,167.2c0.8,0.3,1.6,0.5,2.3,0.8"/>
	<path id="XMLID_160_" class="st22" d="M167.7,159.6c-0.3-0.4-1-1.2-2.1-1.6c-0.6-0.2-1.3-0.3-2.6,0c-2.3,0.5-3.3,1.3-6.2,2.6
		c-0.7,0.3-1.5,0.6-2.6,1c-1.3,0.4-6.2,2.2-7.8,2.1c-0.2,0-1-0.1-1.5,0.4c0,0,0,0,0,0l0,0c-0.2,0.2-0.4,0.4-0.6,0.6"/>
	<path id="XMLID_149_" class="st23" d="M166.7,169.5c1.2,0.6,2.5,1.5,2.3,2.3c-0.2,1.7-6.2,2-6.8,2.1c-2.7,0.2-7-0.1-12.5-2.6"/>
	<path id="XMLID_148_" class="st23" d="M166.4,169.8c0.1,0.1,1.4,0.5,1.6,1.6c0,0.1,0,0.3,0,0.5"/>
	<path id="XMLID_147_" class="st23" d="M160.2,173.4c-1.2-0.1-2.6-0.2-4.2-0.5c-2-0.4-3.8-1-5.2-1.6"/>
</g>
</svg>
